<svg width="727" height="100" viewBox="0 0 727 100" fill="none" xmlns="http://www.w3.org/2000/svg">
<path d="M0 48C0 25.3726 0 14.0589 7.02944 7.02944C14.0589 0 25.3726 0 48 0H52C74.6274 0 85.9411 0 92.9706 7.02944C100 14.0589 100 25.3726 100 48V52C100 74.6274 100 85.9411 92.9706 92.9706C85.9411 100 74.6274 100 52 100H48C25.3726 100 14.0589 100 7.02944 92.9706C0 85.9411 0 74.6274 0 52V48Z" fill="#0077FF"/>
<path d="M24.5375 35.3L50 50.0292L75.4625 35.3M50 79.4V50M76.25 61.6667V38.3334C76.249 37.3104 75.9789 36.3057 75.467 35.4201C74.9551 34.5345 74.2192 33.799 73.3333 33.2875L52.9167 21.6209C52.0299 21.1089 51.024 20.8394 50 20.8394C48.976 20.8394 47.9701 21.1089 47.0833 21.6209L26.6667 33.2875C25.7808 33.799 25.0449 34.5345 24.533 35.4201C24.0211 36.3057 23.751 37.3104 23.75 38.3334V61.6667C23.751 62.6897 24.0211 63.6943 24.533 64.58C25.0449 65.4656 25.7808 66.2011 26.6667 66.7125L47.0833 78.3792C47.9701 78.8912 48.976 79.1607 50 79.1607C51.024 79.1607 52.0299 78.8912 52.9167 78.3792L73.3333 66.7125C74.2192 66.2011 74.9551 65.4656 75.467 64.58C75.9789 63.6943 76.249 62.6897 76.25 61.6667Z" stroke="#F3F3F3" stroke-width="4" stroke-linecap="round" stroke-linejoin="round"/>
<path d="M170.261 73H154.793V29.3636H170.389C174.778 29.3636 178.557 30.2372 181.724 31.9844C184.892 33.7173 187.328 36.2102 189.033 39.4631C190.751 42.7159 191.611 46.608 191.611 51.1392C191.611 55.6847 190.751 59.5909 189.033 62.858C187.328 66.125 184.878 68.6321 181.682 70.3793C178.5 72.1264 174.693 73 170.261 73ZM164.018 65.0952H169.878C172.605 65.0952 174.899 64.6122 176.76 63.6463C178.635 62.6662 180.041 61.1534 180.979 59.108C181.93 57.0483 182.406 54.392 182.406 51.1392C182.406 47.9148 181.93 45.2798 180.979 43.2344C180.041 41.1889 178.642 39.6832 176.781 38.7173C174.92 37.7514 172.626 37.2685 169.899 37.2685H164.018V65.0952ZM203.505 73H193.619L208.683 29.3636H220.572L235.615 73H225.728L214.798 39.3352H214.457L203.505 73ZM202.887 55.848H226.24V63.0497H202.887V55.848ZM233.873 36.9702V29.3636H269.711V36.9702H256.352V73H247.232V36.9702H233.873ZM277.802 73H267.916L282.98 29.3636H294.869L309.912 73H300.025L289.095 39.3352H288.754L277.802 73ZM277.184 55.848H300.537V63.0497H277.184V55.848ZM329.05 73V29.3636H346.266C349.576 29.3636 352.396 29.9957 354.725 31.2599C357.055 32.5099 358.83 34.25 360.052 36.4801C361.288 38.696 361.906 41.2528 361.906 44.1506C361.906 47.0483 361.281 49.6051 360.031 51.821C358.781 54.0369 356.969 55.7628 354.597 56.9986C352.239 58.2344 349.384 58.8523 346.032 58.8523H335.059V51.4588H344.54C346.316 51.4588 347.779 51.1534 348.93 50.5426C350.094 49.9176 350.961 49.0582 351.529 47.9645C352.112 46.8565 352.403 45.5852 352.403 44.1506C352.403 42.7017 352.112 41.4375 351.529 40.358C350.961 39.2642 350.094 38.419 348.93 37.8224C347.765 37.2116 346.288 36.9062 344.498 36.9062H338.276V73H329.05ZM367.898 73V29.3636H385.114C388.409 29.3636 391.222 29.9531 393.551 31.1321C395.895 32.2969 397.678 33.9517 398.9 36.0966C400.135 38.2273 400.753 40.7344 400.753 43.6179C400.753 46.5156 400.128 49.0085 398.878 51.0966C397.628 53.1705 395.817 54.7614 393.445 55.8693C391.087 56.9773 388.232 57.5312 384.88 57.5312H373.353V50.1165H383.388C385.15 50.1165 386.613 49.875 387.777 49.392C388.942 48.9091 389.809 48.1847 390.377 47.2188C390.959 46.2528 391.25 45.0526 391.25 43.6179C391.25 42.169 390.959 40.9474 390.377 39.9531C389.809 38.9588 388.935 38.206 387.756 37.6946C386.591 37.169 385.121 36.9062 383.346 36.9062H377.124V73H367.898ZM391.463 53.142L402.309 73H392.124L381.513 53.142H391.463ZM447.373 51.1818C447.373 55.9403 446.471 59.9886 444.667 63.3267C442.877 66.6648 440.434 69.2145 437.337 70.9759C434.255 72.723 430.789 73.5966 426.939 73.5966C423.061 73.5966 419.581 72.7159 416.499 70.9545C413.417 69.1932 410.98 66.6435 409.191 63.3054C407.401 59.9673 406.506 55.9261 406.506 51.1818C406.506 46.4233 407.401 42.375 409.191 39.0369C410.98 35.6989 413.417 33.1562 416.499 31.4091C419.581 29.6477 423.061 28.767 426.939 28.767C430.789 28.767 434.255 29.6477 437.337 31.4091C440.434 33.1562 442.877 35.6989 444.667 39.0369C446.471 42.375 447.373 46.4233 447.373 51.1818ZM438.019 51.1818C438.019 48.0994 437.557 45.5 436.634 43.3835C435.725 41.267 434.439 39.6619 432.777 38.5682C431.115 37.4744 429.169 36.9276 426.939 36.9276C424.709 36.9276 422.763 37.4744 421.101 38.5682C419.439 39.6619 418.147 41.267 417.223 43.3835C416.314 45.5 415.86 48.0994 415.86 51.1818C415.86 54.2642 416.314 56.8636 417.223 58.9801C418.147 61.0966 419.439 62.7017 421.101 63.7955C422.763 64.8892 424.709 65.4361 426.939 65.4361C429.169 65.4361 431.115 64.8892 432.777 63.7955C434.439 62.7017 435.725 61.0966 436.634 58.9801C437.557 56.8636 438.019 54.2642 438.019 51.1818ZM450.553 36.9702V29.3636H486.391V36.9702H473.031V73H463.912V36.9702H450.553ZM492.293 73V29.3636H521.696V36.9702H501.518V47.3679H520.183V54.9744H501.518V65.3935H521.781V73H492.293ZM567.532 44.6406H558.2C558.029 43.4332 557.681 42.3608 557.156 41.4233C556.63 40.4716 555.956 39.6619 555.132 38.9943C554.308 38.3267 553.356 37.8153 552.277 37.4602C551.211 37.1051 550.054 36.9276 548.804 36.9276C546.545 36.9276 544.578 37.4886 542.902 38.6108C541.225 39.7187 539.926 41.3381 539.002 43.4688C538.079 45.5852 537.618 48.1562 537.618 51.1818C537.618 54.2926 538.079 56.9062 539.002 59.0227C539.94 61.1392 541.247 62.7372 542.923 63.8168C544.599 64.8963 546.538 65.4361 548.74 65.4361C549.975 65.4361 551.119 65.2727 552.17 64.946C553.235 64.6193 554.18 64.1435 555.004 63.5185C555.828 62.8793 556.51 62.1051 557.049 61.196C557.603 60.2869 557.987 59.25 558.2 58.0852L567.532 58.1278C567.291 60.1307 566.687 62.0625 565.721 63.9233C564.77 65.7699 563.484 67.4247 561.865 68.8878C560.26 70.3366 558.342 71.4872 556.112 72.3395C553.896 73.1776 551.389 73.5966 548.591 73.5966C544.699 73.5966 541.218 72.7159 538.15 70.9545C535.096 69.1932 532.681 66.6435 530.906 63.3054C529.145 59.9673 528.264 55.9261 528.264 51.1818C528.264 46.4233 529.159 42.375 530.949 39.0369C532.738 35.6989 535.167 33.1562 538.235 31.4091C541.304 29.6477 544.755 28.767 548.591 28.767C551.119 28.767 553.463 29.1222 555.622 29.8324C557.795 30.5426 559.72 31.5795 561.396 32.9432C563.072 34.2926 564.436 35.9474 565.487 37.9077C566.552 39.8679 567.234 42.1122 567.532 44.6406ZM572.486 36.9702V29.3636H608.324V36.9702H594.965V73H585.846V36.9702H572.486ZM623.452 29.3636V73H614.226V29.3636H623.452ZM671.142 51.1818C671.142 55.9403 670.24 59.9886 668.436 63.3267C666.646 66.6648 664.203 69.2145 661.107 70.9759C658.024 72.723 654.558 73.5966 650.709 73.5966C646.831 73.5966 643.351 72.7159 640.268 70.9545C637.186 69.1932 634.75 66.6435 632.96 63.3054C631.17 59.9673 630.276 55.9261 630.276 51.1818C630.276 46.4233 631.17 42.375 632.96 39.0369C634.75 35.6989 637.186 33.1562 640.268 31.4091C643.351 29.6477 646.831 28.767 650.709 28.767C654.558 28.767 658.024 29.6477 661.107 31.4091C664.203 33.1562 666.646 35.6989 668.436 39.0369C670.24 42.375 671.142 46.4233 671.142 51.1818ZM661.788 51.1818C661.788 48.0994 661.327 45.5 660.403 43.3835C659.494 41.267 658.209 39.6619 656.547 38.5682C654.885 37.4744 652.939 36.9276 650.709 36.9276C648.479 36.9276 646.533 37.4744 644.871 38.5682C643.209 39.6619 641.916 41.267 640.993 43.3835C640.084 45.5 639.629 48.0994 639.629 51.1818C639.629 54.2642 640.084 56.8636 640.993 58.9801C641.916 61.0966 643.209 62.7017 644.871 63.7955C646.533 64.8892 648.479 65.4361 650.709 65.4361C652.939 65.4361 654.885 64.8892 656.547 63.7955C658.209 62.7017 659.494 61.0966 660.403 58.9801C661.327 56.8636 661.788 54.2642 661.788 51.1818ZM714.475 29.3636V73H706.506L687.522 45.5355H687.202V73H677.976V29.3636H686.073L704.908 56.8068H705.292V29.3636H714.475Z" fill="white"/>
</svg>
