<svg width="326" height="100" viewBox="0 0 326 100" fill="none" xmlns="http://www.w3.org/2000/svg">
<path d="M136.825 79.6C134.825 79.6 133.1 78.925 131.65 77.575C130.25 76.175 129.55 74.4 129.55 72.25C129.55 70.1 130.25 68.375 131.65 67.075C133.1 65.725 134.825 65.05 136.825 65.05C138.875 65.05 140.6 65.725 142 67.075C143.4 68.375 144.1 70.1 144.1 72.25C144.1 74.4 143.4 76.175 142 77.575C140.6 78.925 138.875 79.6 136.825 79.6ZM165.604 79.6C162.154 79.6 158.829 79.2 155.629 78.4C152.479 77.55 149.979 76.5 148.129 75.25L152.029 66.85C153.879 68 156.054 68.95 158.554 69.7C161.104 70.4 163.604 70.75 166.054 70.75C168.754 70.75 170.654 70.425 171.754 69.775C172.904 69.125 173.479 68.225 173.479 67.075C173.479 66.125 173.029 65.425 172.129 64.975C171.279 64.475 170.129 64.1 168.679 63.85C167.229 63.6 165.629 63.35 163.879 63.1C162.179 62.85 160.454 62.525 158.704 62.125C156.954 61.675 155.354 61.025 153.904 60.175C152.454 59.325 151.279 58.175 150.379 56.725C149.529 55.275 149.104 53.4 149.104 51.1C149.104 48.55 149.829 46.3 151.279 44.35C152.779 42.4 154.929 40.875 157.729 39.775C160.529 38.625 163.879 38.05 167.779 38.05C170.529 38.05 173.329 38.35 176.179 38.95C179.029 39.55 181.404 40.425 183.304 41.575L179.404 49.9C177.454 48.75 175.479 47.975 173.479 47.575C171.529 47.125 169.629 46.9 167.779 46.9C165.179 46.9 163.279 47.25 162.079 47.95C160.879 48.65 160.279 49.55 160.279 50.65C160.279 51.65 160.704 52.4 161.554 52.9C162.454 53.4 163.629 53.8 165.079 54.1C166.529 54.4 168.104 54.675 169.804 54.925C171.554 55.125 173.304 55.45 175.054 55.9C176.804 56.35 178.379 57 179.779 57.85C181.229 58.65 182.404 59.775 183.304 61.225C184.204 62.625 184.654 64.475 184.654 66.775C184.654 69.275 183.904 71.5 182.404 73.45C180.904 75.35 178.729 76.85 175.879 77.95C173.079 79.05 169.654 79.6 165.604 79.6ZM196.24 94.15C194.14 94.15 192.065 93.825 190.015 93.175C187.965 92.525 186.29 91.625 184.99 90.475L189.265 82.15C190.165 82.95 191.19 83.575 192.34 84.025C193.54 84.475 194.715 84.7 195.865 84.7C197.515 84.7 198.815 84.3 199.765 83.5C200.765 82.75 201.665 81.475 202.465 79.675L204.565 74.725L205.465 73.45L219.94 38.65H231.19L212.965 81.475C211.665 84.725 210.165 87.275 208.465 89.125C206.815 90.975 204.965 92.275 202.915 93.025C200.915 93.775 198.69 94.15 196.24 94.15ZM203.14 80.575L185.14 38.65H197.215L211.165 72.4L203.14 80.575ZM260.489 38.05C263.689 38.05 266.539 38.7 269.039 40C271.589 41.25 273.589 43.2 275.039 45.85C276.489 48.45 277.214 51.8 277.214 55.9V79H265.514V57.7C265.514 54.45 264.789 52.05 263.339 50.5C261.939 48.95 259.939 48.175 257.339 48.175C255.489 48.175 253.814 48.575 252.314 49.375C250.864 50.125 249.714 51.3 248.864 52.9C248.064 54.5 247.664 56.55 247.664 59.05V79H235.964V38.65H247.139V49.825L245.039 46.45C246.489 43.75 248.564 41.675 251.264 40.225C253.964 38.775 257.039 38.05 260.489 38.05ZM307.613 79.6C303.263 79.6 299.388 78.725 295.988 76.975C292.588 75.175 289.913 72.7 287.963 69.55C286.063 66.4 285.113 62.825 285.113 58.825C285.113 54.775 286.063 51.2 287.963 48.1C289.913 44.95 292.588 42.5 295.988 40.75C299.388 38.95 303.263 38.05 307.613 38.05C311.863 38.05 315.563 38.95 318.713 40.75C321.863 42.5 324.188 45.025 325.688 48.325L316.613 53.2C315.563 51.3 314.238 49.9 312.638 49C311.088 48.1 309.388 47.65 307.538 47.65C305.538 47.65 303.738 48.1 302.138 49C300.538 49.9 299.263 51.175 298.313 52.825C297.413 54.475 296.963 56.475 296.963 58.825C296.963 61.175 297.413 63.175 298.313 64.825C299.263 66.475 300.538 67.75 302.138 68.65C303.738 69.55 305.538 70 307.538 70C309.388 70 311.088 69.575 312.638 68.725C314.238 67.825 315.563 66.4 316.613 64.45L325.688 69.4C324.188 72.65 321.863 75.175 318.713 76.975C315.563 78.725 311.863 79.6 307.613 79.6Z" fill="black"/>
<path d="M0 48C0 25.3726 0 14.0589 7.02944 7.02944C14.0589 0 25.3726 0 48 0H52C74.6274 0 85.9411 0 92.9706 7.02944C100 14.0589 100 25.3726 100 48V52C100 74.6274 100 85.9411 92.9706 92.9706C85.9411 100 74.6274 100 52 100H48C25.3726 100 14.0589 100 7.02944 92.9706C0 85.9411 0 74.6274 0 52V48Z" fill="black"/>
<path d="M78.1667 20.8333L46.0833 52.9166M78.1667 20.8333L57.75 79.1666L46.0833 52.9166M78.1667 20.8333L19.8333 41.25L46.0833 52.9166" stroke="#F3F3F3" stroke-width="4" stroke-linecap="round" stroke-linejoin="round"/>
</svg>
