<svg width="327" height="100" viewBox="0 0 327 100" fill="none" xmlns="http://www.w3.org/2000/svg">
<path d="M137.825 79.6C135.825 79.6 134.1 78.925 132.65 77.575C131.25 76.175 130.55 74.4 130.55 72.25C130.55 70.1 131.25 68.375 132.65 67.075C134.1 65.725 135.825 65.05 137.825 65.05C139.875 65.05 141.6 65.725 143 67.075C144.4 68.375 145.1 70.1 145.1 72.25C145.1 74.4 144.4 76.175 143 77.575C141.6 78.925 139.875 79.6 137.825 79.6ZM166.604 79.6C163.154 79.6 159.829 79.2 156.629 78.4C153.479 77.55 150.979 76.5 149.129 75.25L153.029 66.85C154.879 68 157.054 68.95 159.554 69.7C162.104 70.4 164.604 70.75 167.054 70.75C169.754 70.75 171.654 70.425 172.754 69.775C173.904 69.125 174.479 68.225 174.479 67.075C174.479 66.125 174.029 65.425 173.129 64.975C172.279 64.475 171.129 64.1 169.679 63.85C168.229 63.6 166.629 63.35 164.879 63.1C163.179 62.85 161.454 62.525 159.704 62.125C157.954 61.675 156.354 61.025 154.904 60.175C153.454 59.325 152.279 58.175 151.379 56.725C150.529 55.275 150.104 53.4 150.104 51.1C150.104 48.55 150.829 46.3 152.279 44.35C153.779 42.4 155.929 40.875 158.729 39.775C161.529 38.625 164.879 38.05 168.779 38.05C171.529 38.05 174.329 38.35 177.179 38.95C180.029 39.55 182.404 40.425 184.304 41.575L180.404 49.9C178.454 48.75 176.479 47.975 174.479 47.575C172.529 47.125 170.629 46.9 168.779 46.9C166.179 46.9 164.279 47.25 163.079 47.95C161.879 48.65 161.279 49.55 161.279 50.65C161.279 51.65 161.704 52.4 162.554 52.9C163.454 53.4 164.629 53.8 166.079 54.1C167.529 54.4 169.104 54.675 170.804 54.925C172.554 55.125 174.304 55.45 176.054 55.9C177.804 56.35 179.379 57 180.779 57.85C182.229 58.65 183.404 59.775 184.304 61.225C185.204 62.625 185.654 64.475 185.654 66.775C185.654 69.275 184.904 71.5 183.404 73.45C181.904 75.35 179.729 76.85 176.879 77.95C174.079 79.05 170.654 79.6 166.604 79.6ZM197.24 94.15C195.14 94.15 193.065 93.825 191.015 93.175C188.965 92.525 187.29 91.625 185.99 90.475L190.265 82.15C191.165 82.95 192.19 83.575 193.34 84.025C194.54 84.475 195.715 84.7 196.865 84.7C198.515 84.7 199.815 84.3 200.765 83.5C201.765 82.75 202.665 81.475 203.465 79.675L205.565 74.725L206.465 73.45L220.94 38.65H232.19L213.965 81.475C212.665 84.725 211.165 87.275 209.465 89.125C207.815 90.975 205.965 92.275 203.915 93.025C201.915 93.775 199.69 94.15 197.24 94.15ZM204.14 80.575L186.14 38.65H198.215L212.165 72.4L204.14 80.575ZM261.489 38.05C264.689 38.05 267.539 38.7 270.039 40C272.589 41.25 274.589 43.2 276.039 45.85C277.489 48.45 278.214 51.8 278.214 55.9V79H266.514V57.7C266.514 54.45 265.789 52.05 264.339 50.5C262.939 48.95 260.939 48.175 258.339 48.175C256.489 48.175 254.814 48.575 253.314 49.375C251.864 50.125 250.714 51.3 249.864 52.9C249.064 54.5 248.664 56.55 248.664 59.05V79H236.964V38.65H248.139V49.825L246.039 46.45C247.489 43.75 249.564 41.675 252.264 40.225C254.964 38.775 258.039 38.05 261.489 38.05ZM308.613 79.6C304.263 79.6 300.388 78.725 296.988 76.975C293.588 75.175 290.913 72.7 288.963 69.55C287.063 66.4 286.113 62.825 286.113 58.825C286.113 54.775 287.063 51.2 288.963 48.1C290.913 44.95 293.588 42.5 296.988 40.75C300.388 38.95 304.263 38.05 308.613 38.05C312.863 38.05 316.563 38.95 319.713 40.75C322.863 42.5 325.188 45.025 326.688 48.325L317.613 53.2C316.563 51.3 315.238 49.9 313.638 49C312.088 48.1 310.388 47.65 308.538 47.65C306.538 47.65 304.738 48.1 303.138 49C301.538 49.9 300.263 51.175 299.313 52.825C298.413 54.475 297.963 56.475 297.963 58.825C297.963 61.175 298.413 63.175 299.313 64.825C300.263 66.475 301.538 67.75 303.138 68.65C304.738 69.55 306.538 70 308.538 70C310.388 70 312.088 69.575 313.638 68.725C315.238 67.825 316.563 66.4 317.613 64.45L326.688 69.4C325.188 72.65 322.863 75.175 319.713 76.975C316.563 78.725 312.863 79.6 308.613 79.6Z" fill="white"/>
<path d="M0 48C0 25.3726 0 14.0589 7.02944 7.02944C14.0589 0 25.3726 0 48 0H52C74.6274 0 85.9411 0 92.9706 7.02944C100 14.0589 100 25.3726 100 48V52C100 74.6274 100 85.9411 92.9706 92.9706C85.9411 100 74.6274 100 52 100H48C25.3726 100 14.0589 100 7.02944 92.9706C0 85.9411 0 74.6274 0 52V48Z" fill="black"/>
<path d="M78.1667 20.8333L46.0833 52.9167M78.1667 20.8333L57.75 79.1667L46.0833 52.9167M78.1667 20.8333L19.8333 41.25L46.0833 52.9167" stroke="#F3F3F3" stroke-width="4" stroke-linecap="round" stroke-linejoin="round"/>
</svg>
