<svg width="409" height="100" viewBox="0 0 409 100" fill="none" xmlns="http://www.w3.org/2000/svg">
<path d="M0 48C0 25.3726 0 14.0589 7.02944 7.02944C14.0589 0 25.3726 0 48 0H52C74.6274 0 85.9411 0 92.9706 7.02944C100 14.0589 100 25.3726 100 48V52C100 74.6274 100 85.9411 92.9706 92.9706C85.9411 100 74.6274 100 52 100H48C25.3726 100 14.0589 100 7.02944 92.9706C0 85.9411 0 74.6274 0 52V48Z" fill="#0077FF"/>
<path d="M24.5375 35.3L50 50.0292L75.4625 35.3M50 79.4V50M76.25 61.6667V38.3334C76.249 37.3104 75.9789 36.3057 75.467 35.4201C74.9551 34.5345 74.2192 33.799 73.3333 33.2875L52.9167 21.6209C52.0299 21.1089 51.024 20.8394 50 20.8394C48.976 20.8394 47.9701 21.1089 47.0833 21.6209L26.6667 33.2875C25.7808 33.799 25.0449 34.5345 24.533 35.4201C24.0211 36.3057 23.751 37.3104 23.75 38.3334V61.6667C23.751 62.6897 24.0211 63.6943 24.533 64.58C25.0449 65.4656 25.7808 66.2011 26.6667 66.7125L47.0833 78.3792C47.9701 78.8912 48.976 79.1607 50 79.1607C51.024 79.1607 52.0299 78.8912 52.9167 78.3792L73.3333 66.7125C74.2192 66.2011 74.9551 65.4656 75.467 64.58C75.9789 63.6943 76.249 62.6897 76.25 61.6667Z" stroke="#F3F3F3" stroke-width="4" stroke-linecap="round" stroke-linejoin="round"/>
<path d="M133.018 29.3636V73H123.793V29.3636H133.018ZM156.078 73H140.609V29.3636H156.206C160.595 29.3636 164.373 30.2372 167.541 31.9844C170.708 33.7173 173.145 36.2102 174.849 39.4631C176.568 42.7159 177.427 46.608 177.427 51.1392C177.427 55.6847 176.568 59.5909 174.849 62.858C173.145 66.125 170.694 68.6321 167.498 70.3793C164.316 72.1264 160.51 73 156.078 73ZM149.835 65.0952H155.694C158.422 65.0952 160.716 64.6122 162.576 63.6463C164.451 62.6662 165.858 61.1534 166.795 59.108C167.747 57.0483 168.223 54.392 168.223 51.1392C168.223 47.9148 167.747 45.2798 166.795 43.2344C165.858 41.1889 164.458 39.6832 162.598 38.7173C160.737 37.7514 158.443 37.2685 155.716 37.2685H149.835V65.0952ZM184.261 73V29.3636H213.665V36.9702H193.487V47.3679H212.152V54.9744H193.487V65.3935H213.75V73H184.261ZM257.498 29.3636V73H249.529L230.545 45.5355H230.225V73H221V29.3636H229.096L247.931 56.8068H248.315V29.3636H257.498ZM263.459 36.9702V29.3636H299.297V36.9702H285.938V73H276.818V36.9702H263.459ZM314.425 29.3636V73H305.199V29.3636H314.425ZM322.015 73V29.3636H350.907V36.9702H331.241V47.3679H348.99V54.9744H331.241V73H322.015ZM354.556 29.3636H364.89L374.84 48.1562H375.266L385.217 29.3636H395.55L379.634 57.5739V73H370.472V57.5739L354.556 29.3636Z" fill="black"/>
</svg>
