<svg width="482" height="100" viewBox="0 0 482 100" fill="none" xmlns="http://www.w3.org/2000/svg">
<path d="M0 48C0 25.3726 0 14.0589 7.02944 7.02944C14.0589 0 25.3726 0 48 0H52C74.6274 0 85.9411 0 92.9706 7.02944C100 14.0589 100 25.3726 100 48V52C100 74.6274 100 85.9411 92.9706 92.9706C85.9411 100 74.6274 100 52 100H48C25.3726 100 14.0589 100 7.02944 92.9706C0 85.9411 0 74.6274 0 52V48Z" fill="#0077FF"/>
<path d="M24.5375 35.3L50 50.0292L75.4625 35.3M50 79.4V50M76.25 61.6667V38.3334C76.249 37.3104 75.9789 36.3057 75.467 35.4201C74.9551 34.5345 74.2192 33.799 73.3333 33.2875L52.9167 21.6209C52.0299 21.1089 51.024 20.8394 50 20.8394C48.976 20.8394 47.9701 21.1089 47.0833 21.6209L26.6667 33.2875C25.7808 33.799 25.0449 34.5345 24.533 35.4201C24.0211 36.3057 23.751 37.3104 23.75 38.3334V61.6667C23.751 62.6897 24.0211 63.6943 24.533 64.58C25.0449 65.4656 25.7808 66.2011 26.6667 66.7125L47.0833 78.3792C47.9701 78.8912 48.976 79.1607 50 79.1607C51.024 79.1607 52.0299 78.8912 52.9167 78.3792L73.3333 66.7125C74.2192 66.2011 74.9551 65.4656 75.467 64.58C75.9789 63.6943 76.249 62.6897 76.25 61.6667Z" stroke="#F3F3F3" stroke-width="4" stroke-linecap="round" stroke-linejoin="round"/>
<path d="M119.225 77V24.5H131.375V77H119.225ZM143.834 77V24.5H167.684C173.384 24.5 178.409 25.6 182.759 27.8C187.109 29.95 190.509 32.975 192.959 36.875C195.409 40.775 196.634 45.4 196.634 50.75C196.634 56.05 195.409 60.675 192.959 64.625C190.509 68.525 187.109 71.575 182.759 73.775C178.409 75.925 173.384 77 167.684 77H143.834ZM155.984 67.025H167.084C170.584 67.025 173.609 66.375 176.159 65.075C178.759 63.725 180.759 61.825 182.159 59.375C183.609 56.925 184.334 54.05 184.334 50.75C184.334 47.4 183.609 44.525 182.159 42.125C180.759 39.675 178.759 37.8 176.159 36.5C173.609 35.15 170.584 34.475 167.084 34.475H155.984V67.025ZM216.972 45.65H242.247V55.1H216.972V45.65ZM217.872 67.25H246.447V77H205.797V24.5H245.472V34.25H217.872V67.25ZM256.115 77V24.5H266.165L297.14 62.3H292.265V24.5H304.265V77H294.29L263.24 39.2H268.115V77H256.115ZM327.561 77V34.4H310.761V24.5H356.511V34.4H339.711V77H327.561ZM363.048 77V24.5H375.198V77H363.048ZM398.908 48.125H424.108V57.875H398.908V48.125ZM399.808 77H387.658V24.5H427.333V34.25H399.808V77ZM448.608 77V55.55L451.383 62.9L428.283 24.5H441.183L458.883 53.975H451.458L469.233 24.5H481.158L458.058 62.9L460.758 55.55V77H448.608Z" fill="black"/>
</svg>
