<svg width="100" height="100" viewBox="0 0 100 100" fill="none" xmlns="http://www.w3.org/2000/svg">
<path d="M0 48C0 25.3726 0 14.0589 7.02944 7.02944C14.0589 0 25.3726 0 48 0H52C74.6274 0 85.9411 0 92.9706 7.02944C100 14.0589 100 25.3726 100 48V52C100 74.6274 100 85.9411 92.9706 92.9706C85.9411 100 74.6274 100 52 100H48C25.3726 100 14.0589 100 7.02944 92.9706C0 85.9411 0 74.6274 0 52V48Z" fill="#0077FF"/>
<path d="M24.5375 35.3L50 50.0292L75.4625 35.3M50 79.4V50M76.25 61.6667V38.3334C76.249 37.3104 75.9789 36.3057 75.467 35.4201C74.9551 34.5345 74.2192 33.799 73.3333 33.2875L52.9167 21.6209C52.0299 21.1089 51.024 20.8394 50 20.8394C48.976 20.8394 47.9701 21.1089 47.0833 21.6209L26.6667 33.2875C25.7808 33.799 25.0449 34.5345 24.533 35.4201C24.0211 36.3057 23.751 37.3104 23.75 38.3334V61.6667C23.751 62.6897 24.0211 63.6943 24.533 64.58C25.0449 65.4656 25.7808 66.2011 26.6667 66.7125L47.0833 78.3792C47.9701 78.8912 48.976 79.1607 50 79.1607C51.024 79.1607 52.0299 78.8912 52.9167 78.3792L73.3333 66.7125C74.2192 66.2011 74.9551 65.4656 75.467 64.58C75.9789 63.6943 76.249 62.6897 76.25 61.6667Z" stroke="#F3F3F3" stroke-width="4" stroke-linecap="round" stroke-linejoin="round"/>
<path d="M46.15 90V55H54.25V90H46.15ZM62.5563 90V55H78.4563C82.2563 55 85.6063 55.7333 88.5063 57.2C91.4063 58.6333 93.6729 60.65 95.3063 63.25C96.9396 65.85 97.7563 68.9333 97.7563 72.5C97.7563 76.0333 96.9396 79.1167 95.3063 81.75C93.6729 84.35 91.4063 86.3833 88.5063 87.85C85.6063 89.2833 82.2563 90 78.4563 90H62.5563ZM70.6563 83.35H78.0563C80.3896 83.35 82.4063 82.9167 84.1062 82.05C85.8396 81.15 87.1729 79.8833 88.1063 78.25C89.0729 76.6167 89.5563 74.7 89.5563 72.5C89.5563 70.2667 89.0729 68.35 88.1063 66.75C87.1729 65.1167 85.8396 63.8667 84.1062 63C82.4063 62.1 80.3896 61.65 78.0563 61.65H70.6563V83.35Z" fill="white"/>
</svg>
