<svg width="100" height="100" viewBox="0 0 100 100" fill="none" xmlns="http://www.w3.org/2000/svg">
<path d="M0 48C0 25.3726 0 14.0589 7.02944 7.02944C14.0589 0 25.3726 0 48 0H52C74.6274 0 85.9411 0 92.9706 7.02944C100 14.0589 100 25.3726 100 48V52C100 74.6274 100 85.9411 92.9706 92.9706C85.9411 100 74.6274 100 52 100H48C25.3726 100 14.0589 100 7.02944 92.9706C0 85.9411 0 74.6274 0 52V48Z" fill="#0077FF"/>
<path d="M24.5375 35.3L50 50.0292L75.4625 35.3M50 79.4V50M76.25 61.6667V38.3334C76.249 37.3104 75.9789 36.3057 75.467 35.4201C74.9551 34.5345 74.2192 33.799 73.3333 33.2875L52.9167 21.6209C52.0299 21.1089 51.024 20.8394 50 20.8394C48.976 20.8394 47.9701 21.1089 47.0833 21.6209L26.6667 33.2875C25.7808 33.799 25.0449 34.5345 24.533 35.4201C24.0211 36.3057 23.751 37.3104 23.75 38.3334V61.6667C23.751 62.6897 24.0211 63.6943 24.533 64.58C25.0449 65.4656 25.7808 66.2011 26.6667 66.7125L47.0833 78.3792C47.9701 78.8912 48.976 79.1607 50 79.1607C51.024 79.1607 52.0299 78.8912 52.9167 78.3792L73.3333 66.7125C74.2192 66.2011 74.9551 65.4656 75.467 64.58C75.9789 63.6943 76.249 62.6897 76.25 61.6667Z" stroke="#F3F3F3" stroke-width="4" stroke-linecap="round" stroke-linejoin="round"/>
<path d="M61.679 55.9091V85H55.5284V55.9091H61.679ZM77.0518 85H66.7393V55.9091H77.1371C80.0632 55.9091 82.5821 56.4915 84.6939 57.6562C86.8056 58.8116 88.4297 60.4735 89.5661 62.642C90.7119 64.8106 91.2848 67.4053 91.2848 70.4261C91.2848 73.4564 90.7119 76.0606 89.5661 78.2386C88.4297 80.4167 86.7962 82.0881 84.6655 83.2528C82.5443 84.4176 80.0064 85 77.0518 85ZM72.8899 79.7301H76.7962C78.6143 79.7301 80.1437 79.4081 81.3842 78.7642C82.6342 78.1108 83.5717 77.1023 84.1967 75.7386C84.8312 74.3655 85.1484 72.5947 85.1484 70.4261C85.1484 68.2765 84.8312 66.5199 84.1967 65.1562C83.5717 63.7926 82.639 62.7888 81.3984 62.1449C80.1579 61.5009 78.6286 61.179 76.8104 61.179H72.8899V79.7301Z" fill="black"/>
</svg>
