<svg width="488" height="100" viewBox="0 0 488 100" fill="none" xmlns="http://www.w3.org/2000/svg">
<path d="M151.475 79.9C147.275 79.9 143.25 79.35 139.4 78.25C135.55 77.1 132.45 75.625 130.1 73.825L134.225 64.675C136.475 66.275 139.125 67.6 142.175 68.65C145.275 69.65 148.4 70.15 151.55 70.15C153.95 70.15 155.875 69.925 157.325 69.475C158.825 68.975 159.925 68.3 160.625 67.45C161.325 66.6 161.675 65.625 161.675 64.525C161.675 63.125 161.125 62.025 160.025 61.225C158.925 60.375 157.475 59.7 155.675 59.2C153.875 58.65 151.875 58.15 149.675 57.7C147.525 57.2 145.35 56.6 143.15 55.9C141 55.2 139.025 54.3 137.225 53.2C135.425 52.1 133.95 50.65 132.8 48.85C131.7 47.05 131.15 44.75 131.15 41.95C131.15 38.95 131.95 36.225 133.55 33.775C135.2 31.275 137.65 29.3 140.9 27.85C144.2 26.35 148.325 25.6 153.275 25.6C156.575 25.6 159.825 26 163.025 26.8C166.225 27.55 169.05 28.7 171.5 30.25L167.75 39.475C165.3 38.075 162.85 37.05 160.4 36.4C157.95 35.7 155.55 35.35 153.2 35.35C150.85 35.35 148.925 35.625 147.425 36.175C145.925 36.725 144.85 37.45 144.2 38.35C143.55 39.2 143.225 40.2 143.225 41.35C143.225 42.7 143.775 43.8 144.875 44.65C145.975 45.45 147.425 46.1 149.225 46.6C151.025 47.1 153 47.6 155.15 48.1C157.35 48.6 159.525 49.175 161.675 49.825C163.875 50.475 165.875 51.35 167.675 52.45C169.475 53.55 170.925 55 172.025 56.8C173.175 58.6 173.75 60.875 173.75 63.625C173.75 66.575 172.925 69.275 171.275 71.725C169.625 74.175 167.15 76.15 163.85 77.65C160.6 79.15 156.475 79.9 151.475 79.9ZM205.377 79.9C197.927 79.9 192.102 77.825 187.902 73.675C183.702 69.525 181.602 63.6 181.602 55.9V26.5H193.752V55.45C193.752 60.45 194.777 64.05 196.827 66.25C198.877 68.45 201.752 69.55 205.452 69.55C209.152 69.55 212.027 68.45 214.077 66.25C216.127 64.05 217.152 60.45 217.152 55.45V26.5H229.152V55.9C229.152 63.6 227.052 69.525 222.852 73.675C218.652 77.825 212.827 79.9 205.377 79.9ZM266.284 79.9C262.234 79.9 258.459 79.25 254.959 77.95C251.509 76.6 248.509 74.7 245.959 72.25C243.409 69.8 241.409 66.925 239.959 63.625C238.559 60.325 237.859 56.7 237.859 52.75C237.859 48.8 238.559 45.175 239.959 41.875C241.409 38.575 243.409 35.7 245.959 33.25C248.559 30.8 251.584 28.925 255.034 27.625C258.484 26.275 262.259 25.6 266.359 25.6C270.909 25.6 275.009 26.4 278.659 28C282.359 29.55 285.459 31.85 287.959 34.9L280.159 42.1C278.359 40.05 276.359 38.525 274.159 37.525C271.959 36.475 269.559 35.95 266.959 35.95C264.509 35.95 262.259 36.35 260.209 37.15C258.159 37.95 256.384 39.1 254.884 40.6C253.384 42.1 252.209 43.875 251.359 45.925C250.559 47.975 250.159 50.25 250.159 52.75C250.159 55.25 250.559 57.525 251.359 59.575C252.209 61.625 253.384 63.4 254.884 64.9C256.384 66.4 258.159 67.55 260.209 68.35C262.259 69.15 264.509 69.55 266.959 69.55C269.559 69.55 271.959 69.05 274.159 68.05C276.359 67 278.359 65.425 280.159 63.325L287.959 70.525C285.459 73.575 282.359 75.9 278.659 77.5C275.009 79.1 270.884 79.9 266.284 79.9ZM320.19 79.9C316.14 79.9 312.365 79.25 308.865 77.95C305.415 76.6 302.415 74.7 299.865 72.25C297.315 69.8 295.315 66.925 293.865 63.625C292.465 60.325 291.765 56.7 291.765 52.75C291.765 48.8 292.465 45.175 293.865 41.875C295.315 38.575 297.315 35.7 299.865 33.25C302.465 30.8 305.49 28.925 308.94 27.625C312.39 26.275 316.165 25.6 320.265 25.6C324.815 25.6 328.915 26.4 332.565 28C336.265 29.55 339.365 31.85 341.865 34.9L334.065 42.1C332.265 40.05 330.265 38.525 328.065 37.525C325.865 36.475 323.465 35.95 320.865 35.95C318.415 35.95 316.165 36.35 314.115 37.15C312.065 37.95 310.29 39.1 308.79 40.6C307.29 42.1 306.115 43.875 305.265 45.925C304.465 47.975 304.065 50.25 304.065 52.75C304.065 55.25 304.465 57.525 305.265 59.575C306.115 61.625 307.29 63.4 308.79 64.9C310.29 66.4 312.065 67.55 314.115 68.35C316.165 69.15 318.415 69.55 320.865 69.55C323.465 69.55 325.865 69.05 328.065 68.05C330.265 67 332.265 65.425 334.065 63.325L341.865 70.525C339.365 73.575 336.265 75.9 332.565 77.5C328.915 79.1 324.79 79.9 320.19 79.9ZM361.245 47.65H386.52V57.1H361.245V47.65ZM362.145 69.25H390.72V79H350.07V26.5H389.745V36.25H362.145V69.25ZM417.637 79.9C413.437 79.9 409.412 79.35 405.562 78.25C401.712 77.1 398.612 75.625 396.262 73.825L400.387 64.675C402.637 66.275 405.287 67.6 408.337 68.65C411.437 69.65 414.562 70.15 417.712 70.15C420.112 70.15 422.037 69.925 423.487 69.475C424.987 68.975 426.087 68.3 426.787 67.45C427.487 66.6 427.837 65.625 427.837 64.525C427.837 63.125 427.287 62.025 426.187 61.225C425.087 60.375 423.637 59.7 421.837 59.2C420.037 58.65 418.037 58.15 415.837 57.7C413.687 57.2 411.512 56.6 409.312 55.9C407.162 55.2 405.187 54.3 403.387 53.2C401.587 52.1 400.112 50.65 398.962 48.85C397.862 47.05 397.312 44.75 397.312 41.95C397.312 38.95 398.112 36.225 399.712 33.775C401.362 31.275 403.812 29.3 407.062 27.85C410.362 26.35 414.487 25.6 419.437 25.6C422.737 25.6 425.987 26 429.187 26.8C432.387 27.55 435.212 28.7 437.662 30.25L433.912 39.475C431.462 38.075 429.012 37.05 426.562 36.4C424.112 35.7 421.712 35.35 419.362 35.35C417.012 35.35 415.087 35.625 413.587 36.175C412.087 36.725 411.012 37.45 410.362 38.35C409.712 39.2 409.387 40.2 409.387 41.35C409.387 42.7 409.937 43.8 411.037 44.65C412.137 45.45 413.587 46.1 415.387 46.6C417.187 47.1 419.162 47.6 421.312 48.1C423.512 48.6 425.687 49.175 427.837 49.825C430.037 50.475 432.037 51.35 433.837 52.45C435.637 53.55 437.087 55 438.187 56.8C439.337 58.6 439.912 60.875 439.912 63.625C439.912 66.575 439.087 69.275 437.437 71.725C435.787 74.175 433.312 76.15 430.012 77.65C426.762 79.15 422.637 79.9 417.637 79.9ZM465.464 79.9C461.264 79.9 457.239 79.35 453.389 78.25C449.539 77.1 446.439 75.625 444.089 73.825L448.214 64.675C450.464 66.275 453.114 67.6 456.164 68.65C459.264 69.65 462.389 70.15 465.539 70.15C467.939 70.15 469.864 69.925 471.314 69.475C472.814 68.975 473.914 68.3 474.614 67.45C475.314 66.6 475.664 65.625 475.664 64.525C475.664 63.125 475.114 62.025 474.014 61.225C472.914 60.375 471.464 59.7 469.664 59.2C467.864 58.65 465.864 58.15 463.664 57.7C461.514 57.2 459.339 56.6 457.139 55.9C454.989 55.2 453.014 54.3 451.214 53.2C449.414 52.1 447.939 50.65 446.789 48.85C445.689 47.05 445.139 44.75 445.139 41.95C445.139 38.95 445.939 36.225 447.539 33.775C449.189 31.275 451.639 29.3 454.889 27.85C458.189 26.35 462.314 25.6 467.264 25.6C470.564 25.6 473.814 26 477.014 26.8C480.214 27.55 483.039 28.7 485.489 30.25L481.739 39.475C479.289 38.075 476.839 37.05 474.389 36.4C471.939 35.7 469.539 35.35 467.189 35.35C464.839 35.35 462.914 35.625 461.414 36.175C459.914 36.725 458.839 37.45 458.189 38.35C457.539 39.2 457.214 40.2 457.214 41.35C457.214 42.7 457.764 43.8 458.864 44.65C459.964 45.45 461.414 46.1 463.214 46.6C465.014 47.1 466.989 47.6 469.139 48.1C471.339 48.6 473.514 49.175 475.664 49.825C477.864 50.475 479.864 51.35 481.664 52.45C483.464 53.55 484.914 55 486.014 56.8C487.164 58.6 487.739 60.875 487.739 63.625C487.739 66.575 486.914 69.275 485.264 71.725C483.614 74.175 481.139 76.15 477.839 77.65C474.589 79.15 470.464 79.9 465.464 79.9Z" fill="white"/>
<path d="M0 48C0 25.3726 0 14.0589 7.02944 7.02944C14.0589 0 25.3726 0 48 0H52C74.6274 0 85.9411 0 92.9706 7.02944C100 14.0589 100 25.3726 100 48V52C100 74.6274 100 85.9411 92.9706 92.9706C85.9411 100 74.6274 100 52 100H48C25.3726 100 14.0589 100 7.02944 92.9706C0 85.9411 0 74.6274 0 52V48Z" fill="black"/>
<path d="M78.1666 20.8333L46.0833 52.9167M78.1666 20.8333L57.75 79.1667L46.0833 52.9167M78.1666 20.8333L19.8333 41.25L46.0833 52.9167" stroke="#F3F3F3" stroke-width="4" stroke-linecap="round" stroke-linejoin="round"/>
</svg>
