<svg width="409" height="100" viewBox="0 0 409 100" fill="none" xmlns="http://www.w3.org/2000/svg">
<path d="M0 48C0 25.3726 0 14.0589 7.02944 7.02944C14.0589 0 25.3726 0 48 0H52C74.6274 0 85.9411 0 92.9706 7.02944C100 14.0589 100 25.3726 100 48V52C100 74.6274 100 85.9411 92.9706 92.9706C85.9411 100 74.6274 100 52 100H48C25.3726 100 14.0589 100 7.02944 92.9706C0 85.9411 0 74.6274 0 52V48Z" fill="#0077FF"/>
<path d="M24.5375 35.3L50 50.0292L75.4625 35.3M50 79.4V50M76.25 61.6667V38.3334C76.249 37.3104 75.9789 36.3057 75.467 35.4201C74.9551 34.5345 74.2192 33.799 73.3333 33.2875L52.9167 21.6209C52.0299 21.1089 51.024 20.8394 50 20.8394C48.976 20.8394 47.9701 21.1089 47.0833 21.6209L26.6667 33.2875C25.7808 33.799 25.0449 34.5345 24.533 35.4201C24.0211 36.3057 23.751 37.3104 23.75 38.3334V61.6667C23.751 62.6897 24.0211 63.6943 24.533 64.58C25.0449 65.4656 25.7808 66.2011 26.6667 66.7125L47.0833 78.3792C47.9701 78.8912 48.976 79.1607 50 79.1607C51.024 79.1607 52.0299 78.8912 52.9167 78.3792L73.3333 66.7125C74.2192 66.2011 74.9551 65.4656 75.467 64.58C75.9789 63.6943 76.249 62.6897 76.25 61.6667Z" stroke="#F3F3F3" stroke-width="4" stroke-linecap="round" stroke-linejoin="round"/>
<path d="M147.464 41.9134C147.294 40.1946 146.563 38.8594 145.27 37.9077C143.977 36.956 142.223 36.4801 140.007 36.4801C138.501 36.4801 137.23 36.6932 136.193 37.1193C135.156 37.5312 134.361 38.1065 133.807 38.8452C133.267 39.5838 132.997 40.4219 132.997 41.3594C132.969 42.1406 133.132 42.8224 133.487 43.4048C133.857 43.9872 134.361 44.4915 135 44.9176C135.639 45.3295 136.378 45.6918 137.216 46.0043C138.054 46.3026 138.949 46.5582 139.901 46.7713L143.821 47.7088C145.724 48.1349 147.472 48.7031 149.062 49.4134C150.653 50.1236 152.031 50.9972 153.196 52.0341C154.361 53.071 155.263 54.2926 155.902 55.6989C156.555 57.1051 156.889 58.7173 156.903 60.5355C156.889 63.206 156.207 65.5213 154.858 67.4815C153.523 69.4276 151.591 70.9403 149.062 72.0199C146.548 73.0852 143.516 73.6179 139.964 73.6179C136.442 73.6179 133.374 73.0781 130.76 71.9986C128.161 70.919 126.129 69.321 124.666 67.2045C123.217 65.0739 122.457 62.4389 122.386 59.2997H131.314C131.413 60.7628 131.832 61.9844 132.571 62.9645C133.324 63.9304 134.325 64.6619 135.575 65.1591C136.839 65.642 138.267 65.8835 139.858 65.8835C141.42 65.8835 142.777 65.6562 143.928 65.2017C145.092 64.7472 145.994 64.1151 146.634 63.3054C147.273 62.4957 147.592 61.5653 147.592 60.5142C147.592 59.5341 147.301 58.7102 146.719 58.0426C146.151 57.375 145.313 56.8068 144.205 56.3381C143.111 55.8693 141.768 55.4432 140.178 55.0597L135.426 53.8665C131.747 52.9716 128.842 51.5724 126.712 49.669C124.581 47.7656 123.523 45.2017 123.537 41.9773C123.523 39.3352 124.226 37.027 125.646 35.0526C127.081 33.0781 129.048 31.5369 131.548 30.429C134.048 29.321 136.889 28.767 140.071 28.767C143.31 28.767 146.136 29.321 148.551 30.429C150.98 31.5369 152.869 33.0781 154.219 35.0526C155.568 37.027 156.264 39.3139 156.307 41.9134H147.464ZM190.062 29.3636H199.288V57.7017C199.288 60.8835 198.528 63.6676 197.008 66.054C195.502 68.4403 193.393 70.3011 190.68 71.6364C187.967 72.9574 184.806 73.6179 181.199 73.6179C177.576 73.6179 174.409 72.9574 171.696 71.6364C168.983 70.3011 166.873 68.4403 165.368 66.054C163.862 63.6676 163.109 60.8835 163.109 57.7017V29.3636H172.335V56.9134C172.335 58.5753 172.697 60.0526 173.422 61.3452C174.16 62.6378 175.197 63.6534 176.532 64.392C177.868 65.1307 179.423 65.5 181.199 65.5C182.988 65.5 184.544 65.1307 185.865 64.392C187.2 63.6534 188.23 62.6378 188.954 61.3452C189.693 60.0526 190.062 58.5753 190.062 56.9134V29.3636ZM245.38 44.6406H236.048C235.877 43.4332 235.529 42.3608 235.004 41.4233C234.478 40.4716 233.803 39.6619 232.979 38.9943C232.156 38.3267 231.204 37.8153 230.124 37.4602C229.059 37.1051 227.901 36.9276 226.651 36.9276C224.393 36.9276 222.425 37.4886 220.749 38.6108C219.073 39.7187 217.773 41.3381 216.85 43.4688C215.927 45.5852 215.465 48.1562 215.465 51.1818C215.465 54.2926 215.927 56.9062 216.85 59.0227C217.788 61.1392 219.094 62.7372 220.771 63.8168C222.447 64.8963 224.386 65.4361 226.587 65.4361C227.823 65.4361 228.967 65.2727 230.018 64.946C231.083 64.6193 232.028 64.1435 232.852 63.5185C233.675 62.8793 234.357 62.1051 234.897 61.196C235.451 60.2869 235.835 59.25 236.048 58.0852L245.38 58.1278C245.138 60.1307 244.535 62.0625 243.569 63.9233C242.617 65.7699 241.332 67.4247 239.712 68.8878C238.107 70.3366 236.19 71.4872 233.96 72.3395C231.744 73.1776 229.237 73.5966 226.438 73.5966C222.546 73.5966 219.066 72.7159 215.998 70.9545C212.944 69.1932 210.529 66.6435 208.754 63.3054C206.992 59.9673 206.112 55.9261 206.112 51.1818C206.112 46.4233 207.006 42.375 208.796 39.0369C210.586 35.6989 213.015 33.1562 216.083 31.4091C219.151 29.6477 222.603 28.767 226.438 28.767C228.967 28.767 231.31 29.1222 233.469 29.8324C235.643 30.5426 237.567 31.5795 239.244 32.9432C240.92 34.2926 242.283 35.9474 243.335 37.9077C244.4 39.8679 245.082 42.1122 245.38 44.6406ZM290.497 44.6406H281.165C280.994 43.4332 280.646 42.3608 280.121 41.4233C279.595 40.4716 278.92 39.6619 278.097 38.9943C277.273 38.3267 276.321 37.8153 275.241 37.4602C274.176 37.1051 273.018 36.9276 271.768 36.9276C269.51 36.9276 267.543 37.4886 265.866 38.6108C264.19 39.7187 262.891 41.3381 261.967 43.4688C261.044 45.5852 260.582 48.1562 260.582 51.1818C260.582 54.2926 261.044 56.9062 261.967 59.0227C262.905 61.1392 264.212 62.7372 265.888 63.8168C267.564 64.8963 269.503 65.4361 271.705 65.4361C272.94 65.4361 274.084 65.2727 275.135 64.946C276.2 64.6193 277.145 64.1435 277.969 63.5185C278.793 62.8793 279.474 62.1051 280.014 61.196C280.568 60.2869 280.952 59.25 281.165 58.0852L290.497 58.1278C290.256 60.1307 289.652 62.0625 288.686 63.9233C287.734 65.7699 286.449 67.4247 284.83 68.8878C283.224 70.3366 281.307 71.4872 279.077 72.3395C276.861 73.1776 274.354 73.5966 271.555 73.5966C267.663 73.5966 264.183 72.7159 261.115 70.9545C258.061 69.1932 255.646 66.6435 253.871 63.3054C252.109 59.9673 251.229 55.9261 251.229 51.1818C251.229 46.4233 252.124 42.375 253.913 39.0369C255.703 35.6989 258.132 33.1562 261.2 31.4091C264.268 29.6477 267.72 28.767 271.555 28.767C274.084 28.767 276.428 29.1222 278.587 29.8324C280.76 30.5426 282.685 31.5795 284.361 32.9432C286.037 34.2926 287.401 35.9474 288.452 37.9077C289.517 39.8679 290.199 42.1122 290.497 44.6406ZM297.113 73V29.3636H326.516V36.9702H306.339V47.3679H325.004V54.9744H306.339V65.3935H326.602V73H297.113ZM357.523 41.9134C357.353 40.1946 356.621 38.8594 355.328 37.9077C354.036 36.956 352.282 36.4801 350.066 36.4801C348.56 36.4801 347.289 36.6932 346.252 37.1193C345.215 37.5312 344.419 38.1065 343.865 38.8452C343.326 39.5838 343.056 40.4219 343.056 41.3594C343.027 42.1406 343.191 42.8224 343.546 43.4048C343.915 43.9872 344.419 44.4915 345.059 44.9176C345.698 45.3295 346.436 45.6918 347.275 46.0043C348.113 46.3026 349.007 46.5582 349.959 46.7713L353.88 47.7088C355.783 48.1349 357.53 48.7031 359.121 49.4134C360.712 50.1236 362.09 50.9972 363.255 52.0341C364.419 53.071 365.321 54.2926 365.961 55.6989C366.614 57.1051 366.948 58.7173 366.962 60.5355C366.948 63.206 366.266 65.5213 364.917 67.4815C363.581 69.4276 361.65 70.9403 359.121 72.0199C356.607 73.0852 353.574 73.6179 350.023 73.6179C346.5 73.6179 343.432 73.0781 340.819 71.9986C338.219 70.919 336.188 69.321 334.725 67.2045C333.276 65.0739 332.516 62.4389 332.445 59.2997H341.373C341.472 60.7628 341.891 61.9844 342.63 62.9645C343.382 63.9304 344.384 64.6619 345.634 65.1591C346.898 65.642 348.326 65.8835 349.917 65.8835C351.479 65.8835 352.836 65.6562 353.986 65.2017C355.151 64.7472 356.053 64.1151 356.692 63.3054C357.331 62.4957 357.651 61.5653 357.651 60.5142C357.651 59.5341 357.36 58.7102 356.777 58.0426C356.209 57.375 355.371 56.8068 354.263 56.3381C353.169 55.8693 351.827 55.4432 350.236 55.0597L345.485 53.8665C341.806 52.9716 338.901 51.5724 336.77 49.669C334.64 47.7656 333.581 45.2017 333.596 41.9773C333.581 39.3352 334.284 37.027 335.705 35.0526C337.14 33.0781 339.107 31.5369 341.607 30.429C344.107 29.321 346.948 28.767 350.13 28.767C353.368 28.767 356.195 29.321 358.61 30.429C361.039 31.5369 362.928 33.0781 364.277 35.0526C365.627 37.027 366.323 39.3139 366.365 41.9134H357.523ZM396.839 41.9134C396.669 40.1946 395.938 38.8594 394.645 37.9077C393.352 36.956 391.598 36.4801 389.382 36.4801C387.876 36.4801 386.605 36.6932 385.568 37.1193C384.531 37.5312 383.736 38.1065 383.182 38.8452C382.642 39.5838 382.372 40.4219 382.372 41.3594C382.344 42.1406 382.507 42.8224 382.862 43.4048C383.232 43.9872 383.736 44.4915 384.375 44.9176C385.014 45.3295 385.753 45.6918 386.591 46.0043C387.429 46.3026 388.324 46.5582 389.276 46.7713L393.196 47.7088C395.099 48.1349 396.847 48.7031 398.438 49.4134C400.028 50.1236 401.406 50.9972 402.571 52.0341C403.736 53.071 404.638 54.2926 405.277 55.6989C405.93 57.1051 406.264 58.7173 406.278 60.5355C406.264 63.206 405.582 65.5213 404.233 67.4815C402.898 69.4276 400.966 70.9403 398.438 72.0199C395.923 73.0852 392.891 73.6179 389.339 73.6179C385.817 73.6179 382.749 73.0781 380.135 71.9986C377.536 70.919 375.504 69.321 374.041 67.2045C372.592 65.0739 371.832 62.4389 371.761 59.2997H380.689C380.788 60.7628 381.207 61.9844 381.946 62.9645C382.699 63.9304 383.7 64.6619 384.95 65.1591C386.214 65.642 387.642 65.8835 389.233 65.8835C390.795 65.8835 392.152 65.6562 393.303 65.2017C394.467 64.7472 395.369 64.1151 396.009 63.3054C396.648 62.4957 396.967 61.5653 396.967 60.5142C396.967 59.5341 396.676 58.7102 396.094 58.0426C395.526 57.375 394.688 56.8068 393.58 56.3381C392.486 55.8693 391.143 55.4432 389.553 55.0597L384.801 53.8665C381.122 52.9716 378.217 51.5724 376.087 49.669C373.956 47.7656 372.898 45.2017 372.912 41.9773C372.898 39.3352 373.601 37.027 375.021 35.0526C376.456 33.0781 378.423 31.5369 380.923 30.429C383.423 29.321 386.264 28.767 389.446 28.767C392.685 28.767 395.511 29.321 397.926 30.429C400.355 31.5369 402.244 33.0781 403.594 35.0526C404.943 37.027 405.639 39.3139 405.682 41.9134H396.839Z" fill="white"/>
</svg>
